<svg width="872" height="930" viewBox="0 0 872 930" fill="none" xmlns="http://www.w3.org/2000/svg">
<path d="M546.395 592.88C555.46 581.761 555.384 565.78 546.214 554.747L534.829 541.05C523.031 526.856 501.336 526.581 489.181 540.471L437.37 599.682C435.41 601.922 433.794 604.441 432.576 607.157L409.083 659.515C407.592 662.838 406.718 666.405 406.505 670.041L402 746.921V900C402 916.569 415.431 930 432 930H438.897C455.465 930 468.897 916.569 468.897 900V749.411C468.897 747.754 469.034 746.1 469.307 744.466L477.091 697.887C477.602 694.828 478.584 691.867 480.003 689.109L499.182 651.824C500.139 649.965 501.287 648.211 502.608 646.59L546.395 592.88Z" fill="#008156"/>
<path d="M405.713 382.159C402.837 365.797 387.212 354.888 370.861 357.826L366.867 358.543C350.235 361.532 339.352 377.661 342.806 394.202L384.424 593.53C385.718 599.725 385.019 606.17 382.429 611.943L361.083 659.515C359.592 662.838 358.719 666.405 358.506 670.041L354 746.921V900C354 916.569 367.432 930 384 930H390.897C407.466 930 420.897 916.569 420.897 900V749.411C420.897 747.754 421.034 746.1 421.307 744.466L429.091 697.887C429.602 694.828 430.585 691.867 432.003 689.109L448.004 658.003C451 652.18 452.007 645.536 450.874 639.087L405.713 382.159Z" fill="#008156"/>
<ellipse rx="135" ry="115" transform="matrix(-1 0 0 1 577 528)" fill="#00BD7E"/>
<ellipse rx="135" ry="115" transform="matrix(-1 0 0 1 360 368)" fill="#00BD7E"/>
<path d="M316.142 704.997C309.558 696.255 309.614 684.195 316.279 675.515V675.515C325.874 663.019 344.63 662.785 354.534 675.037L379.625 706.077C381.432 708.311 382.908 710.794 384.008 713.449L397.108 745.052C398.409 748.19 399.167 751.526 399.351 754.918L402 803.855V903.722C402 914.921 392.921 924 381.722 924V924C370.523 924 361.444 914.921 361.444 903.722V806.157C361.444 804.624 361.327 803.094 361.093 801.58L356.678 772.983C356.234 770.107 355.374 767.311 354.125 764.683L343.515 742.356C342.648 740.531 341.599 738.799 340.383 737.185L316.142 704.997Z" fill="#008156"/>
<mask id="path-6-inside-1_501_12" fill="white">
<rect width="872" height="930" rx="10"/>
</mask>
<rect width="872" height="930" rx="10" stroke="#00BD7E" stroke-width="60" mask="url(#path-6-inside-1_501_12)"/>
<ellipse cx="296" cy="660.5" rx="82" ry="75.5" fill="#00BD7E"/>
</svg>
